<?xml version="1.0" encoding="UTF-8" standalone="no"?>
<svg
   id="Icons"
   viewBox="0 0 24 24"
   version="1.1"
   sodipodi:docname="calendar.svg"
   inkscape:version="1.4 (e7c3feb100, 2024-10-09)"
   xmlns:inkscape="http://www.inkscape.org/namespaces/inkscape"
   xmlns:sodipodi="http://sodipodi.sourceforge.net/DTD/sodipodi-0.dtd"
   xmlns="http://www.w3.org/2000/svg"
   xmlns:svg="http://www.w3.org/2000/svg">
  <sodipodi:namedview
     id="namedview8"
     pagecolor="#505050"
     bordercolor="#ffffff"
     borderopacity="1"
     inkscape:showpageshadow="0"
     inkscape:pageopacity="0"
     inkscape:pagecheckerboard="1"
     inkscape:deskcolor="#505050"
     inkscape:zoom="33.291667"
     inkscape:cx="12.015019"
     inkscape:cy="12"
     inkscape:window-width="1239"
     inkscape:window-height="1008"
     inkscape:window-x="0"
     inkscape:window-y="0"
     inkscape:window-maximized="1"
     inkscape:current-layer="Icons" />
  <defs
     id="defs1">
    <style
       id="style1">.cls-1{fill:#232323;}</style>
  </defs>
  <path
     class="cls-1"
     d="M20,2H19V1a1,1,0,0,0-2,0V2H7V1A1,1,0,0,0,5,1V2H4A4,4,0,0,0,0,6V20a4,4,0,0,0,4,4H20a4,4,0,0,0,4-4V6A4,4,0,0,0,20,2Zm2,18a2,2,0,0,1-2,2H4a2,2,0,0,1-2-2V6A2,2,0,0,1,4,4H5V5A1,1,0,0,0,7,5V4H17V5a1,1,0,0,0,2,0V4h1a2,2,0,0,1,2,2Z"
     id="path1" />
  <path
     class="cls-1"
     d="M19,7H5A1,1,0,0,0,5,9H19a1,1,0,0,0,0-2Z"
     id="path2" />
  <path
     class="cls-1"
     d="M7,12H5a1,1,0,0,0,0,2H7a1,1,0,0,0,0-2Z"
     id="path3" />
  <path
     class="cls-1"
     d="M7,17H5a1,1,0,0,0,0,2H7a1,1,0,0,0,0-2Z"
     id="path4" />
  <path
     class="cls-1"
     d="M13,12H11a1,1,0,0,0,0,2h2a1,1,0,0,0,0-2Z"
     id="path5" />
  <path
     class="cls-1"
     d="M13,17H11a1,1,0,0,0,0,2h2a1,1,0,0,0,0-2Z"
     id="path6" />
  <path
     class="cls-1"
     d="M19,12H17a1,1,0,0,0,0,2h2a1,1,0,0,0,0-2Z"
     id="path7" />
  <path
     class="cls-1"
     d="M19,17H17a1,1,0,0,0,0,2h2a1,1,0,0,0,0-2Z"
     id="path8" />
  <path
     style="fill:#ffffff;stroke-width:0.340583"
     d="m 4.7459324,18.956284 c -0.2632244,-0.08261 -0.5193275,-0.299035 -0.63595,-0.537414 -0.048133,-0.09838 -0.0722,-0.209135 -0.0796,-0.366304 -0.019767,-0.419807 0.1766394,-0.749393 0.5587159,-0.93757 l 0.2004539,-0.09873 1.0855129,-0.0098 c 1.3741849,-0.01238 1.5241569,0.01274 1.8175673,0.304527 0.4867308,0.484036 0.3320317,1.301142 -0.3018695,1.594448 -0.1311647,0.06069 -0.1859153,0.06347 -1.3532159,0.06882 -0.6690863,0.0031 -1.2503129,-0.005 -1.2916145,-0.018 z"
     id="path9" />
  <path
     style="fill:#ffffff;stroke-width:0.340583"
     d="M 4.8166724,13.966273 C 4.5253196,13.90861 4.2595787,13.70362 4.1093193,13.420628 c -0.057337,-0.107986 -0.068564,-0.175523 -0.068886,-0.41437 -3.192e-4,-0.237399 0.011142,-0.308508 0.068194,-0.42311 0.094923,-0.190674 0.2909713,-0.381752 0.4871172,-0.474767 l 0.1652065,-0.07834 1.181774,-0.0088 c 1.3046542,-0.0097 1.3792801,-0.0018 1.6208165,0.173198 0.2444122,0.177051 0.4264458,0.525318 0.4264458,0.815877 0,0.445884 -0.3696081,0.875486 -0.8208277,0.954063 -0.2209735,0.03848 -2.1597679,0.04007 -2.3524874,0.0019 z"
     id="path10" />
  <path
     style="fill:#ffffff;stroke-width:0.340583"
     d="m 10.825734,13.967507 c -0.20479,-0.04221 -0.334018,-0.109735 -0.490922,-0.2565 -0.5005674,-0.468222 -0.395135,-1.247914 0.213358,-1.57782 l 0.190253,-0.103149 1.198717,-0.0088 c 1.333644,-0.0098 1.377539,-0.0048 1.642262,0.187455 0.344658,0.25031 0.48326,0.705966 0.343117,1.127997 -0.0413,0.124368 -0.10007,0.210341 -0.237751,0.347793 -0.296799,0.296305 -0.284423,0.293985 -1.609674,0.301771 -0.619525,0.0036 -1.181737,-0.0048 -1.24936,-0.01873 z"
     id="path11" />
  <path
     style="fill:#ffffff;stroke-width:0.340583"
     d="m 16.824983,13.966097 c -0.431468,-0.08798 -0.75095,-0.434865 -0.802212,-0.871019 -0.03805,-0.323734 0.133829,-0.697941 0.413687,-0.900669 0.241537,-0.174968 0.316162,-0.182943 1.620817,-0.173198 l 1.181774,0.0088 0.165206,0.07793 c 0.343847,0.162191 0.540582,0.454962 0.563261,0.838218 0.02464,0.416376 -0.172451,0.748362 -0.556608,0.937569 l -0.200449,0.09873 -1.127132,0.0052 c -0.619922,0.0029 -1.186177,-0.0069 -1.258344,-0.02157 z"
     id="path12" />
  <path
     style="fill:#ffffff;stroke-width:0.340583"
     d="m 16.680825,18.928633 c -0.680375,-0.237335 -0.88223,-1.111664 -0.373457,-1.617619 0.29341,-0.291785 0.443382,-0.316912 1.817567,-0.304527 l 1.085513,0.0098 0.200454,0.09873 c 0.382987,0.188626 0.579445,0.519001 0.557526,0.93757 -0.01993,0.380663 -0.217622,0.676223 -0.559505,0.836505 l -0.169874,0.07964 -1.201502,0.007 c -1.091382,0.0064 -1.215728,0.0021 -1.356722,-0.04711 z"
     id="path13" />
  <path
     style="fill:#ffffff;stroke-width:0.340583"
     d="m 10.693529,18.933627 c -0.528982,-0.185073 -0.7963765,-0.736432 -0.616669,-1.271549 0.07539,-0.22449 0.352429,-0.501316 0.586469,-0.586017 0.154317,-0.05585 0.242424,-0.05979 1.336671,-0.05979 1.353987,0 1.36968,0.0025 1.650223,0.258862 0.266097,0.243198 0.373662,0.55051 0.313076,0.894458 -0.06181,0.35092 -0.33967,0.670241 -0.669627,0.769554 -0.223795,0.06736 -2.405074,0.06273 -2.600143,-0.0055 z"
     id="path14" />
  <path
     style="fill:#ffffff;stroke-width:0.340583"
     d="M 4.7459324,8.9532629 C 4.3206824,8.8227295 4.0507192,8.4819696 4.0303823,8.0500626 4.0116953,7.6531945 4.194443,7.3243123 4.5400128,7.1329051 l 0.1608633,-0.0891 H 12 19.299124 l 0.160863,0.0891 c 0.34557,0.1914072 0.528318,0.5202894 0.509631,0.9171575 -0.0176,0.3737748 -0.214992,0.6756923 -0.550344,0.841768 l -0.150188,0.074377 -7.22403,0.00505 c -3.9732162,0.00278 -7.257822,-0.00532 -7.2991236,-0.017998 z"
     id="path15" />
  <path
     style="fill:#ffffff;stroke-width:0.340583"
     d="M 3.6645807,23.967316 C 2.603402,23.88322 1.5505763,23.323703 0.8979949,22.497036 0.53134973,22.032582 0.25336932,21.463662 0.12066236,20.906133 0.00108173,20.40375 -0.00370598,20.054736 0.00755439,12.660826 0.01836351,5.5632165 0.01858431,5.5410707 0.08138615,5.2555041 0.26711396,4.4109792 0.60903812,3.773201 1.1848332,3.197286 1.5411483,2.8408967 1.7832228,2.6630832 2.2012723,2.45067 2.8463913,2.1228816 3.2269883,2.0428084 4.2407039,2.0215967 l 0.7713672,-0.016141 0.00961,-0.6347681 0.00961,-0.634768 0.1031492,-0.19025269 C 5.3150754,0.21249217 5.6257265,0.02628285 6.0009219,0.02628285 c 0.2593243,0 0.4646751,0.07829286 0.6508803,0.24815712 0.2867732,0.26160655 0.3464966,0.47688427 0.3467723,1.24996553 l 1.739e-4,0.4881101 h 4.9981676 4.998168 l 0.01142,-0.6082603 c 0.01108,-0.59063851 0.01385,-0.61358377 0.09551,-0.7920129 0.165604,-0.36185094 0.501267,-0.58450298 0.882995,-0.58570944 0.388661,-0.0012284 0.696982,0.18054342 0.880556,0.51913425 l 0.103149,0.19025269 0.0096,0.634768 0.0096,0.6347681 0.771367,0.015544 c 0.631584,0.012727 0.824286,0.027055 1.063391,0.079068 0.774161,0.1684059 1.410856,0.5173457 1.976405,1.0831662 0.478483,0.4787126 0.790279,0.9795905 0.989728,1.5899283 0.208055,0.6366749 0.19328,0.063638 0.204543,7.9327195 0.0069,4.795437 -1.41e-4,7.241616 -0.02155,7.52774 -0.07758,1.036694 -0.461152,1.882401 -1.178452,2.598298 -0.548251,0.547177 -1.281275,0.930699 -2.097487,1.097415 -0.238331,0.04868 -0.80295,0.05251 -8.485607,0.05756 -4.5266585,0.003 -8.3722154,-0.0058 -8.5456823,-0.01958 z M 20.530663,21.947027 c 0.696714,-0.210489 1.199341,-0.713579 1.416741,-1.418046 0.0528,-0.171104 0.0551,-0.484553 0.0551,-7.522723 V 5.6620776 L 21.932468,5.436796 C 21.825154,5.0915949 21.67623,4.8497746 21.404393,4.5793177 21.124804,4.3011475 20.8573,4.1462908 20.497337,4.0542278 c -0.19486,-0.049837 -0.332948,-0.059234 -0.87043,-0.059234 h -0.638828 l -0.0097,0.6232791 c -0.0093,0.5995068 -0.01267,0.6295801 -0.08806,0.7884856 -0.162812,0.3431748 -0.457718,0.541553 -0.837766,0.5635519 -0.416247,0.024094 -0.748557,-0.1730517 -0.937034,-0.555904 l -0.09819,-0.1994529 -0.0115,-0.6099797 -0.0115,-0.60998 H 12 7.0056589 l -0.0115,0.60998 -0.0115,0.6099797 -0.09819,0.1994529 C 6.6959907,5.7972586 6.3636805,5.9944046 5.9474343,5.9703103 5.5715111,5.9485502 5.271159,5.7464834 5.1097712,5.4067584 5.0342463,5.2477769 5.0309242,5.2180671 5.021605,4.6182728 L 5.0119206,3.9949937 H 4.3730932 c -0.5333029,0 -0.6763588,0.0096 -0.8660339,0.058109 C 2.8295606,4.2263784 2.3088262,4.7143545 2.0792348,5.3911065 l -0.081738,0.2409336 v 7.3742179 7.374218 l 0.084815,0.240012 c 0.2037019,0.576442 0.6132546,1.016387 1.1585475,1.244522 0.3679972,0.153959 -0.029976,0.14757 8.8342347,0.141827 7.895307,-0.0051 8.283621,-0.0079 8.455569,-0.05981 z"
     id="path16" />
</svg>
