<?xml version="1.0" encoding="UTF-8" standalone="no"?>
<svg
   height="32px"
   id="Layer_1"
   style="enable-background:new 0 0 32 32;"
   version="1.1"
   viewBox="0 0 32 32"
   width="32px"
   xml:space="preserve"
   sodipodi:docname="new.svg"
   inkscape:version="1.4 (e7c3feb100, 2024-10-09)"
   xmlns:inkscape="http://www.inkscape.org/namespaces/inkscape"
   xmlns:sodipodi="http://sodipodi.sourceforge.net/DTD/sodipodi-0.dtd"
   xmlns="http://www.w3.org/2000/svg"
   xmlns:svg="http://www.w3.org/2000/svg"><defs
     id="defs1" /><sodipodi:namedview
     id="namedview1"
     pagecolor="#505050"
     bordercolor="#ffffff"
     borderopacity="1"
     inkscape:showpageshadow="0"
     inkscape:pageopacity="0"
     inkscape:pagecheckerboard="1"
     inkscape:deskcolor="#505050"
     inkscape:zoom="64"
     inkscape:cx="17.867187"
     inkscape:cy="18.476562"
     inkscape:window-width="1920"
     inkscape:window-height="1008"
     inkscape:window-x="0"
     inkscape:window-y="0"
     inkscape:window-maximized="1"
     inkscape:current-layer="Layer_1" /><path
     style="fill:#ffffff;stroke-width:0.454111"
     d="m 15.516148,29.884024 c -0.532329,-0.138961 -1.031793,-0.55758 -1.28639,-1.078167 l -0.132136,-0.270187 -0.02483,-2.803505 c -0.01366,-1.541927 -0.02717,-3.913446 -0.03004,-5.270041 l -0.0052,-2.466537 -2.192741,-0.02654 C 10.638803,17.954447 8.3724706,17.941927 6.8085156,17.941227 5.2083383,17.940509 3.83377,17.922927 3.6649322,17.901027 3.3053162,17.854366 3.0459089,17.731165 2.7374673,17.460544 2.457585,17.21498 2.2557235,16.916116 2.1417537,16.578565 2.0694868,16.364527 2.0571049,16.251945 2.0693132,15.9199 2.0826213,15.557938 2.0979464,15.490495 2.228573,15.219024 2.4039084,14.854638 2.5893068,14.635091 2.9224026,14.397399 3.3736439,14.0754 3.2637022,14.089105 5.6670839,14.055245 c 1.178473,-0.0166 3.5439299,-0.03188 5.2565711,-0.03396 l 3.113892,-0.0038 0.0044,-2.533167 c 0.0024,-1.393241 0.01593,-3.7681173 0.03004,-5.277502 l 0.02565,-2.7443363 0.135453,-0.2750782 c 0.387417,-0.7867726 1.234691,-1.2435795 2.057288,-1.109185 0.682634,0.1115276 1.160739,0.4917462 1.514227,1.2042057 l 0.117813,0.2374537 v 4.7619158 c 0,2.6190543 0.01163,4.9782073 0.02584,5.2425633 l 0.02584,0.480647 5.050502,0.0284 c 2.857311,0.01606 5.172243,0.04523 5.330851,0.06715 0.655499,0.09061 1.277028,0.635705 1.503606,1.318688 0.07119,0.214593 0.08377,0.330683 0.07164,0.660826 -0.01328,0.361286 -0.02882,0.429912 -0.158642,0.700876 -0.171944,0.358871 -0.401499,0.627665 -0.721792,0.845172 -0.439048,0.298152 -0.324922,0.285241 -2.817462,0.318735 -1.233542,0.01657 -3.596229,0.03181 -5.250416,0.03387 l -3.007613,0.0037 -0.02618,0.486889 c -0.0144,0.267788 -0.02618,2.629578 -0.02618,5.248422 v 4.761533 l -0.150188,0.307473 c -0.198656,0.406702 -0.57215,0.791801 -0.931164,0.960099 -0.466542,0.218705 -0.857425,0.259163 -1.324903,0.13713 z"
     id="path3" /></svg>
