<?xml version="1.0" encoding="UTF-8" standalone="no"?>
<svg
   enable-background="new 0 0 48 48"
   height="48px"
   version="1.1"
   viewBox="0 0 48 48"
   width="48px"
   xml:space="preserve"
   id="svg3"
   sodipodi:docname="settings.svg"
   inkscape:version="1.4 (e7c3feb100, 2024-10-09)"
   xmlns:inkscape="http://www.inkscape.org/namespaces/inkscape"
   xmlns:sodipodi="http://sodipodi.sourceforge.net/DTD/sodipodi-0.dtd"
   xmlns="http://www.w3.org/2000/svg"
   xmlns:svg="http://www.w3.org/2000/svg"><defs
     id="defs3" /><sodipodi:namedview
     id="namedview3"
     pagecolor="#505050"
     bordercolor="#ffffff"
     borderopacity="1"
     inkscape:showpageshadow="0"
     inkscape:pageopacity="0"
     inkscape:pagecheckerboard="1"
     inkscape:deskcolor="#505050"
     inkscape:zoom="16.645833"
     inkscape:cx="24"
     inkscape:cy="24"
     inkscape:window-width="1920"
     inkscape:window-height="1008"
     inkscape:window-x="0"
     inkscape:window-y="0"
     inkscape:window-maximized="1"
     inkscape:current-layer="svg3" /><g
     id="Expanded"><g
       id="g3"><g
         id="g1"><path
           d="M26,48h-4c-1.654,0-3-1.346-3-3v-3.724c-1.28-0.37-2.512-0.881-3.681-1.527l-2.634,2.635     c-1.134,1.134-3.109,1.132-4.243,0l-2.829-2.828c-0.567-0.566-0.879-1.32-0.879-2.121s0.312-1.555,0.879-2.121l2.635-2.636     c-0.645-1.166-1.156-2.398-1.525-3.679H3c-1.654,0-3-1.346-3-3v-4c0-0.802,0.312-1.555,0.878-2.121     c0.567-0.566,1.32-0.879,2.122-0.879h3.724c0.37-1.278,0.88-2.511,1.526-3.679l-2.634-2.635c-1.17-1.17-1.17-3.072,0-4.242     l2.828-2.829c1.133-1.132,3.109-1.134,4.243,0l2.635,2.635C16.49,7.604,17.722,7.093,19,6.724V3c0-1.654,1.346-3,3-3h4     c1.654,0,3,1.346,3,3v3.724c1.28,0.37,2.512,0.881,3.678,1.525l2.635-2.635c1.134-1.132,3.109-1.134,4.243,0l2.829,2.828     c0.567,0.566,0.879,1.32,0.879,2.121s-0.312,1.555-0.879,2.121l-2.634,2.635c0.646,1.168,1.157,2.4,1.526,3.68H45     c1.654,0,3,1.346,3,3v4c0,0.802-0.312,1.555-0.878,2.121s-1.32,0.879-2.122,0.879h-3.724c-0.37,1.28-0.881,2.513-1.526,3.68     l2.634,2.635c1.17,1.17,1.17,3.072,0,4.242l-2.828,2.829c-1.134,1.133-3.109,1.133-4.243,0L32.68,39.75     c-1.168,0.646-2.401,1.156-3.679,1.526V45C29,46.654,27.655,48,26,48z M15.157,37.498c0.179,0,0.36,0.048,0.521,0.146     c1.416,0.866,2.949,1.502,4.557,1.891C20.684,39.644,21,40.045,21,40.507V45c0,0.552,0.449,1,1,1h4c0.551,0,1-0.448,1-1v-4.493     c0-0.462,0.316-0.863,0.765-0.972c1.606-0.389,3.139-1.023,4.556-1.89c0.396-0.241,0.902-0.18,1.229,0.146l3.178,3.179     c0.375,0.374,1.039,0.376,1.415,0l2.828-2.829c0.39-0.39,0.39-1.024,0-1.414l-3.179-3.179c-0.327-0.326-0.387-0.835-0.146-1.229     c0.865-1.414,1.5-2.947,1.889-4.556c0.108-0.449,0.51-0.766,0.972-0.766H45c0.267,0,0.519-0.104,0.708-0.293     C45.896,26.518,46,26.267,46,25.999v-4c0-0.552-0.449-1-1-1h-4.493c-0.462,0-0.864-0.316-0.972-0.766     c-0.388-1.607-1.023-3.14-1.889-4.556c-0.241-0.394-0.181-0.901,0.146-1.229l3.179-3.179c0.186-0.187,0.293-0.444,0.293-0.707     s-0.107-0.521-0.293-0.707l-2.829-2.828c-0.378-0.377-1.037-0.377-1.415,0l-3.179,3.179c-0.326,0.328-0.833,0.389-1.229,0.146     c-1.413-0.864-2.945-1.5-4.554-1.889C27.317,8.356,27,7.955,27,7.493V3c0-0.552-0.449-1-1-1h-4c-0.551,0-1,0.448-1,1v4.493     c0,0.462-0.316,0.863-0.765,0.972c-1.606,0.388-3.139,1.023-4.556,1.889c-0.395,0.241-0.902,0.181-1.228-0.146l-3.179-3.179     c-0.378-0.377-1.037-0.377-1.415,0L7.03,9.857c-0.39,0.39-0.39,1.024,0,1.414l3.179,3.179c0.327,0.326,0.387,0.835,0.146,1.229     c-0.866,1.416-1.501,2.949-1.889,4.555c-0.108,0.449-0.51,0.766-0.972,0.766H3c-0.267,0-0.519,0.104-0.708,0.293     C2.104,21.48,2,21.731,2,21.999v4c0,0.552,0.449,1,1,1h4.493c0.462,0,0.864,0.316,0.972,0.766     c0.389,1.608,1.024,3.141,1.889,4.555c0.241,0.394,0.181,0.901-0.146,1.229l-3.179,3.18c-0.186,0.187-0.293,0.444-0.293,0.707     s0.107,0.521,0.293,0.707l2.829,2.828c0.377,0.377,1.037,0.377,1.415,0l3.178-3.179C14.643,37.598,14.898,37.498,15.157,37.498z"
           id="path1" /></g><g
         id="g2"><path
           d="M24,34c-5.514,0-10-4.486-10-10s4.486-10,10-10s10,4.486,10,10S29.515,34,24,34z M24,16c-4.411,0-8,3.589-8,8     s3.589,8,8,8s8-3.589,8-8S28.412,16,24,16z"
           id="path2" /></g></g></g><path
     style="fill:#ffffff;stroke-width:0.681166"
     d="m 21.620626,47.937827 c -0.78701,-0.09197 -1.66134,-0.641852 -2.09492,-1.317528 -0.448477,-0.698891 -0.447362,-0.691594 -0.48132,-3.148211 L 19.013766,41.257066 18.11264,40.944169 C 17.182364,40.62115 16.22138,40.207355 15.641624,39.880161 l -0.33236,-0.187572 -1.511954,1.504068 c -1.12367,1.11781 -1.593186,1.544644 -1.82827,1.662068 C 10.928126,43.378663 9.7088176,43.281701 8.7803198,42.605151 8.585253,42.463016 7.7235094,41.638486 6.8653343,40.772861 5.4365857,39.331711 5.2868722,39.161006 5.0898509,38.748436 4.829463,38.203173 4.7216648,37.65438 4.7785958,37.163858 4.8271193,36.745777 4.9875572,36.247694 5.1747942,35.933852 5.2467225,35.813287 5.9797505,35.035503 6.8037453,34.205444 L 8.3019178,32.696245 8.0613663,32.253003 C 7.717905,31.620139 7.288967,30.60792 6.9952575,29.737171 L 6.7419605,28.986233 4.5274257,28.955614 C 2.4362359,28.926701 2.2952198,28.917781 1.9956211,28.795467 0.89924684,28.34786 0.18815035,27.430574 0.05763432,26.29554 -0.01665085,25.649518 -0.01554239,22.340872 0.05917695,21.690934 0.18874556,20.563895 0.8986405,19.652388 1.9956211,19.204533 2.2952256,19.082217 2.4362228,19.0733 4.5279123,19.044386 l 2.2150214,-0.03062 0.3134688,-0.901126 c 0.34128,-0.981073 0.7022562,-1.826931 1.0347929,-2.424777 L 8.3037975,15.30564 6.8046855,13.795499 C 5.9801734,12.964921 5.2495383,12.190738 5.1810513,12.075094 4.6424883,11.165696 4.6632883,9.8827957 5.2312129,8.9812265 5.4742475,8.5954141 8.3269132,5.7169919 8.8010013,5.3792072 9.73293,4.7152138 10.935284,4.6249122 11.96904,5.1412745 c 0.235053,0.1174088 0.704284,0.5439432 1.826459,1.6602618 L 15.30564,8.3037975 15.687864,8.0911954 C 16.28571,7.7586587 17.131568,7.3976825 18.112641,7.0564025 l 0.901126,-0.3134688 0.03062,-2.2150214 c 0.02891,-2.0916895 0.03783,-2.2326867 0.160147,-2.5322912 0.447607,-1.09637426 1.364893,-1.80747075 2.499927,-1.93798678 0.639302,-0.07351252 3.951778,-0.07351252 4.59108,0 1.135034,0.13051603 2.05232,0.84161252 2.499927,1.93798678 0.122323,0.2996212 0.131231,0.4405637 0.160147,2.5337025 l 0.03062,2.2164324 0.754178,0.2521123 c 0.826133,0.2761664 1.973748,0.7647602 2.571725,1.0949035 l 0.382224,0.2110257 1.510141,-1.5022612 c 1.117528,-1.1116958 1.591877,-1.5430848 1.824527,-1.659283 0.897436,-0.44823 1.876537,-0.4458795 2.829287,0.00679 0.279032,0.1325735 0.657327,0.4776593 2.090425,1.9069109 1.628993,1.624621 1.764572,1.7761713 1.964659,2.1960902 0.36467,0.7653266 0.408507,1.5542256 0.130196,2.3430416 -0.167584,0.474982 -0.344203,0.685266 -1.84734,2.199468 l -1.498173,1.509199 0.240552,0.443242 c 0.343461,0.632864 0.772399,1.645083 1.066109,2.515832 l 0.253297,0.750938 2.214535,0.03062 c 2.091189,0.02891 2.232205,0.03783 2.531804,0.160147 1.096374,0.447607 1.807471,1.364893 1.937987,2.499927 0.07429,0.646022 0.07318,3.954668 -0.0015,4.604606 -0.129569,1.127039 -0.839464,2.038546 -1.936444,2.486401 -0.299604,0.122316 -0.440602,0.131233 -2.532291,0.160147 l -2.215022,0.03062 -0.312897,0.901126 c -0.323019,0.930277 -0.736814,1.891261 -1.064008,2.471017 l -0.187572,0.33236 1.500919,1.511954 c 0.825505,0.831574 1.556954,1.606572 1.62544,1.722216 0.538178,0.908747 0.517836,2.188984 -0.04916,3.093867 -0.103518,0.165207 -0.949293,1.05845 -1.879502,1.984984 -1.377932,1.372489 -1.754409,1.714665 -2.031972,1.846835 -0.951389,0.453036 -1.931591,0.455515 -2.829287,0.0072 -0.232666,-0.116207 -0.707175,-0.547763 -1.825518,-1.660272 l -1.511134,-1.50325 -0.321157,0.18249 c -0.556374,0.316146 -1.550341,0.74331 -2.48386,1.067454 l -0.901126,0.312897 -0.03062,2.215022 c -0.02891,2.091689 -0.03783,2.232687 -0.160147,2.532291 -0.447607,1.096374 -1.364893,1.807471 -2.499927,1.937987 -0.577907,0.06645 -4.096669,0.06304 -4.674914,-0.0045 z m 4.898021,-2.056462 c 0.146997,-0.08365 0.288394,-0.233889 0.375469,-0.398949 0.13959,-0.264604 0.139676,-0.266292 0.139676,-2.720791 0,-3.150541 -0.08227,-2.939199 1.304651,-3.35167 1.416486,-0.421265 2.247778,-0.765312 3.50624,-1.451127 0.788006,-0.429434 1.08554,-0.503002 1.395812,-0.345126 0.07217,0.03672 0.9152,0.846144 1.873397,1.798714 0.958198,0.95257 1.818281,1.760572 1.911295,1.795559 0.215881,0.0812 0.585927,0.08153 0.803192,6.99e-4 0.192258,-0.07152 3.225187,-3.064927 3.357077,-3.313325 0.101325,-0.190835 0.112702,-0.630413 0.02252,-0.870162 -0.03499,-0.09301 -0.844576,-0.953097 -1.799084,-1.911295 -0.954509,-0.958197 -1.76393,-1.81828 -1.798714,-1.911295 -0.08672,-0.231887 -0.07873,-0.581355 0.01741,-0.762046 0.04395,-0.0826 0.215144,-0.393492 0.380429,-0.690864 0.596518,-1.073222 1.077075,-2.274787 1.515837,-3.790133 0.142176,-0.491029 0.279318,-0.690708 0.568699,-0.828029 0.17979,-0.08532 0.518458,-0.09773 2.665528,-0.09773 2.458211,0 2.459715,-7.7e-5 2.724337,-0.139676 0.16506,-0.08707 0.315298,-0.228472 0.398949,-0.375469 0.132366,-0.232606 0.13418,-0.266655 0.13418,-2.518647 0,-2.251992 -0.0018,-2.286041 -0.13418,-2.518647 -0.08365,-0.146997 -0.233889,-0.288394 -0.398949,-0.375469 -0.264604,-0.13959 -0.266292,-0.139676 -2.720791,-0.139676 -3.150541,0 -2.939199,0.08227 -3.35167,-1.304651 -0.423381,-1.423598 -0.789026,-2.309093 -1.447477,-3.505397 -0.433561,-0.787715 -0.507654,-1.084414 -0.348776,-1.396655 0.03672,-0.07217 0.846144,-0.9152 1.798714,-1.873397 0.95257,-0.958198 1.760572,-1.818281 1.795559,-1.911295 0.09018,-0.239749 0.07881,-0.679327 -0.02252,-0.870162 -0.13189,-0.2483983 -3.164819,-3.2418014 -3.357077,-3.313325 -0.217265,-0.080827 -0.587311,-0.080506 -0.803192,6.986e-4 -0.09301,0.034988 -0.953097,0.844576 -1.911295,1.7990845 -0.958197,0.9545085 -1.81828,1.7639299 -1.911295,1.7987139 -0.360257,0.134722 -0.574971,0.07909 -1.358757,-0.352061 C 30.656823,9.3848008 29.655462,8.9686714 28.367095,8.5929552 27.446386,8.3244562 27.320058,8.255526 27.154715,7.9314269 27.039372,7.7053355 27.033792,7.5810755 27.033792,5.2383753 c 0,-2.4544998 -8.6e-5,-2.4561875 -0.139676,-2.7207913 C 26.807041,2.352524 26.665644,2.2022854 26.518647,2.1186353 26.286041,1.9862685 26.251992,1.9844546 24,1.9844546 c -2.251992,0 -2.286041,0.00181 -2.518647,0.1341807 -0.146997,0.08365 -0.288394,0.2338887 -0.375469,0.3989487 -0.13959,0.2646038 -0.139676,0.2662915 -0.139676,2.7207913 0,3.1499022 0.07935,2.9468226 -1.311271,3.3559328 -1.39287,0.4097722 -2.236868,0.75871 -3.49962,1.4468639 -0.78382,0.427152 -0.999745,0.482593 -1.357914,0.348651 C 14.704388,10.355039 13.844305,9.5456176 12.886108,8.5911091 11.92791,7.6366006 11.067827,6.8270124 10.974813,6.7920246 10.758932,6.7108205 10.388886,6.7104985 10.171621,6.791326 9.9793634,6.8628496 6.9464344,9.8562527 6.8145444,10.104651 c -0.1013257,0.190835 -0.1127021,0.630413 -0.02252,0.870162 0.034988,0.09301 0.8429894,0.953097 1.7955593,1.911295 0.9525699,0.958197 1.7619913,1.801226 1.7987143,1.873397 0.157876,0.310272 0.08431,0.607806 -0.345126,1.395812 -0.6881541,1.262752 -1.0370919,2.10675 -1.4468641,3.49962 -0.259191,0.881026 -0.3396033,1.025424 -0.6628812,1.190348 -0.2260914,0.115343 -0.3503514,0.120923 -2.6930516,0.120923 -2.4544998,0 -2.4561875,8.6e-5 -2.7207913,0.139676 -0.16506,0.08707 -0.3152986,0.228472 -0.3989487,0.375469 C 1.9862685,21.713959 1.9844546,21.748008 1.9844546,24 c 0,2.251992 0.00181,2.286041 0.1341807,2.518647 0.08365,0.146997 0.2338887,0.288394 0.3989487,0.375469 0.2646038,0.13959 0.2662915,0.139676 2.7207913,0.139676 3.1499022,0 2.9468226,-0.07935 3.3559328,1.311271 0.4094923,1.391917 0.7821663,2.290614 1.4616629,3.524774 0.412745,0.749665 0.468569,0.972517 0.333852,1.33276 -0.03478,0.09302 -0.8442054,0.953098 -1.7987139,1.911295 -0.9545085,0.958198 -1.7640967,1.818281 -1.7990845,1.911295 -0.090182,0.239749 -0.078806,0.679327 0.02252,0.870162 0.13189,0.248398 3.164819,3.241801 3.3570764,3.313325 0.217589,0.08095 0.587629,0.08047 0.803192,-0.001 0.09301,-0.03517 0.966614,-0.857749 1.941332,-1.827958 1.174085,-1.168653 1.82918,-1.778117 1.940997,-1.805797 0.32881,-0.08139 0.662347,0.01358 1.273021,0.362486 1.103803,0.630655 2.134488,1.0603 3.524774,1.469312 0.881026,0.259191 1.025424,0.339603 1.190348,0.662881 0.115343,0.226092 0.120923,0.350351 0.120923,2.693052 0,2.454499 8.6e-5,2.456187 0.139676,2.720791 0.08707,0.16506 0.228472,0.315298 0.375469,0.398949 0.232606,0.132366 0.266655,0.13418 2.518647,0.13418 2.251992,0 2.286041,-0.0018 2.518647,-0.13418 z"
     id="path3" /><path
     style="fill:#ffffff;stroke-width:0.681166"
     d="M 22.498123,33.858018 C 18.329578,33.166285 15.157825,30.143208 14.223516,25.971285 14.108439,25.457435 14.091484,25.204293 14.091484,24 c 0,-1.204293 0.01696,-1.457435 0.132032,-1.971285 0.897733,-4.008605 3.796594,-6.907466 7.805199,-7.805199 C 22.542557,14.10844 22.795726,14.091483 24,14.091475 c 1.203186,-7e-6 1.460501,0.01719 1.991355,0.133118 3.948308,0.862202 6.891133,3.812207 7.785129,7.804122 0.115077,0.51385 0.132032,0.766992 0.132032,1.971285 0,1.204293 -0.01695,1.457435 -0.132032,1.971285 -0.894691,3.99502 -3.806135,6.915003 -7.774431,7.797232 -0.721705,0.160449 -2.762279,0.212572 -3.50393,0.0895 z m 2.733416,-1.929734 c 3.464624,-0.553995 6.165893,-3.265324 6.701825,-6.726782 0.128598,-0.830585 0.08961,-2.150644 -0.08606,-2.913642 -0.719122,-3.123475 -3.109508,-5.479292 -6.255317,-6.164857 -0.722384,-0.157429 -2.461596,-0.157429 -3.18398,0 -3.184421,0.693979 -5.591028,3.100586 -6.285007,6.285007 -0.157429,0.722384 -0.157429,2.461596 0,3.18398 0.743473,3.41153 3.483347,5.941778 6.915795,6.386673 0.463073,0.06002 1.676695,0.03214 2.192741,-0.05038 z"
     id="path4" /></svg>
